<svg xmlns="http://www.w3.org/2000/svg" width="44" height="44" fill="none" viewBox="0 0 44 44"><path fill="#7c4ee4" d="M4.89 38.972C1.091 35.228-.69 29.532.38 24.298c1.06-5.878 5.625-11.002 11.39-12.617 2.823 2.864 5.682 5.689 8.517 8.537.584.563 1.12 1.177 1.75 1.69-2.01.02-4.023-.053-6.03.025-2.772.175-5.121 2.79-4.966 5.57-.026 2.807 2.49 5.343 5.298 5.326 5.522.013 11.044-.001 16.563.009 3.628 3.632 7.25 7.272 10.898 10.886-.564.107-1.136.078-1.705.073l-25.54.001c-4.318.011-8.631-1.74-11.667-4.826"/><path fill="#7c4ee4" d="M10.758 10.713C7.168 7.148 3.633 3.523 0 0c8.499.033 16.996.005 25.495.015 1.426.02 2.867-.08 4.277.187a16.3 16.3 0 0 1 9.539 4.92c2.78 2.884 4.407 6.826 4.533 10.824a16.6 16.6 0 0 1-2.622 9.387c-2.098 3.224-5.342 5.772-9.074 6.792-2.787-2.832-5.617-5.624-8.422-8.44-.565-.524-1.039-1.151-1.687-1.584q.165-.137.36-.23c1.782.038 3.567.033 5.35.01 2.766-.077 5.194-2.605 5.14-5.375.08-2.25-1.443-4.413-3.542-5.185-.8-.345-1.684-.35-2.54-.343-5.172.005-10.342-.001-15.513.004a.65.65 0 0 1-.537-.269"/></svg>